<svg xmlns="http://www.w3.org/2000/svg" width="24" height="22" fill="none" viewBox="0 0 24 22">
  <path fill="#fff" d="M9.818 22c-.29 0-.567-.116-.771-.322a1.105 1.105 0 0 1 0-1.556c.204-.206.482-.322.771-.322h9.091c.772 0 1.512-.309 2.057-.86a2.94 2.94 0 0 0 .852-2.073V5.133c0-.778-.306-1.524-.852-2.074A2.897 2.897 0 0 0 18.91 2.2H9.82c-.29 0-.568-.116-.772-.322a1.105 1.105 0 0 1 0-1.556A1.08 1.08 0 0 1 9.818 0h9.091c1.35 0 2.645.54 3.6 1.504A5.155 5.155 0 0 1 24 5.134v11.733a5.155 5.155 0 0 1-1.491 3.63 5.07 5.07 0 0 1-3.6 1.503H9.82ZM9.805 5.425a1.09 1.09 0 0 1 1.198-.19c.13.06.247.146.344.252l4.364 4.767a1.105 1.105 0 0 1 0 1.492l-4.364 4.767a1.092 1.092 0 0 1-.759.352 1.083 1.083 0 0 1-.783-.292 1.1 1.1 0 0 1-.35-.764 1.105 1.105 0 0 1 .29-.79l2.674-2.92H1.09c-.29 0-.567-.116-.771-.323a1.105 1.105 0 0 1 0-1.555c.204-.207.482-.322.77-.322h11.327l-2.673-2.92a1.102 1.102 0 0 1-.19-1.207 1.1 1.1 0 0 1 .251-.347Z"/>
</svg>
