<svg xmlns="http://www.w3.org/2000/svg" width="26" height="17" fill="none" viewBox="0 0 26 17">
  <path fill="#97DFFC" d="M9.015 5.942a.928.928 0 0 0-.658-.277.915.915 0 0 0-.657.277L6.5 7.165 5.3 5.942a.929.929 0 0 0-.657-.277.916.916 0 0 0-.658.277.947.947 0 0 0-.272.67.96.96 0 0 0 .272.668L5.187 8.5 3.985 9.72a.947.947 0 0 0-.272.669.96.96 0 0 0 .272.669.922.922 0 0 0 1.315 0l1.2-1.223 1.2 1.223a.928.928 0 0 0 .657.277.915.915 0 0 0 .658-.277.948.948 0 0 0 .272-.67.96.96 0 0 0-.272-.668L7.813 8.5l1.202-1.22a.946.946 0 0 0 .272-.669.958.958 0 0 0-.272-.669Zm6.113 0a.928.928 0 0 1 .658-.277.916.916 0 0 1 .657.277.946.946 0 0 1 .272.67.96.96 0 0 1-.272.668L15.242 8.5l1.201 1.22a.954.954 0 0 1 0 1.338.922.922 0 0 1-1.315 0l-1.2-1.223-1.2 1.223a.93.93 0 0 1-.657.277.915.915 0 0 1-.657-.277.948.948 0 0 1-.272-.67.958.958 0 0 1 .272-.668l1.202-1.22-1.202-1.22a.947.947 0 0 1-.272-.669.958.958 0 0 1 .272-.669.928.928 0 0 1 .657-.277.916.916 0 0 1 .658.277l1.2 1.223 1.2-1.223ZM19.5 9.444a.92.92 0 0 0-.657.277.953.953 0 0 0 0 1.336.92.92 0 0 0 .657.276h1.857a.92.92 0 0 0 .657-.276.952.952 0 0 0 0-1.336.92.92 0 0 0-.657-.277H19.5ZM4.643 0A4.604 4.604 0 0 0 1.36 1.383 4.763 4.763 0 0 0 0 4.723v7.555c0 .62.12 1.234.353 1.807a4.729 4.729 0 0 0 1.007 1.532A4.604 4.604 0 0 0 4.643 17h16.714c.61 0 1.214-.122 1.777-.36a4.638 4.638 0 0 0 1.506-1.023c.431-.439.773-.96 1.007-1.532A4.793 4.793 0 0 0 26 12.278V4.722c0-1.252-.49-2.453-1.36-3.339A4.604 4.604 0 0 0 21.357 0H4.643ZM1.857 4.722c0-.751.294-1.472.816-2.003a2.762 2.762 0 0 1 1.97-.83h16.714a2.76 2.76 0 0 1 1.97.83c.522.531.816 1.252.816 2.003v7.556c0 .751-.294 1.472-.816 2.003a2.76 2.76 0 0 1-1.97.83H4.643a2.762 2.762 0 0 1-1.97-.83 2.858 2.858 0 0 1-.816-2.003V4.722Z"/>
</svg>
