<svg xmlns="http://www.w3.org/2000/svg" width="22" height="22" fill="none" viewBox="0 0 22 22">
  <path fill="#fff" d="M14.928 0A7.069 7.069 0 0 0 8.16 9.124L0 17.286V22h4.714l8.161-8.162A7.07 7.07 0 1 0 14.928 0Zm0 12.571c-.542 0-1.08-.08-1.597-.237l-.901-.273-3.165 3.165-1.083-1.083-1.111 1.11 1.083 1.084-1.246 1.247L5.825 16.5l-1.111 1.111 1.083 1.084-1.734 1.734H1.571v-2.493L9.94 9.57l-.274-.901a5.5 5.5 0 1 1 5.263 3.903Z"/>
  <path fill="#fff" d="M15.713 7.857a1.571 1.571 0 1 0 0-3.143 1.571 1.571 0 0 0 0 3.143Z"/>
</svg>
