<svg xmlns="http://www.w3.org/2000/svg" width="24" height="25" fill="none" viewBox="0 0 24 25">
  <path fill="#97DFFC" d="M17.128 25a1 1 0 0 0 0-2v2ZM3.35 24v-1 1Zm-2.33-2.585.991.126-.992-.126Zm.457-3.593-.992-.126.992.126ZM4.973 14.8v1-1Zm.412 1a1 1 0 1 0 0-2v2Zm15.092-2.15a1 1 0 1 0-2 0h2Zm-2 6.9a1 1 0 1 0 2 0h-2Zm-2.523-4.45a1 1 0 1 0 0 2v-2Zm7.046 2a1 1 0 1 0 0-2v2ZM16.128 6.75c0 2.604-2.16 4.75-4.871 4.75v2c3.775 0 6.871-3.002 6.871-6.75h-2Zm-4.871 4.75c-2.71 0-4.872-2.146-4.872-4.75h-2c0 3.748 3.097 6.75 6.872 6.75v-2ZM6.385 6.75C6.385 4.146 8.547 2 11.257 2V0C7.482 0 4.385 3.002 4.385 6.75h2ZM11.257 2c2.71 0 4.871 2.146 4.871 4.75h2c0-3.748-3.096-6.75-6.871-6.75v2Zm5.871 21H3.35v2h13.78v-2Zm-13.78 0a1.39 1.39 0 0 1-.56-.118l-.809 1.83c.432.19.899.288 1.37.288v-2Zm-.56-.118a1.345 1.345 0 0 1-.457-.33l-1.486 1.34c.316.35.703.629 1.134.82l.808-1.83Zm-.457-.33a1.288 1.288 0 0 1-.273-.474l-1.907.601c.142.45.379.863.694 1.213l1.486-1.34Zm-.273-.474a1.255 1.255 0 0 1-.048-.537l-1.984-.253c-.06.468-.017.942.125 1.391l1.907-.601Zm-.048-.537.458-3.592-1.984-.253-.458 3.592 1.984.253Zm.458-3.592a2.429 2.429 0 0 1 .827-1.53l-1.308-1.512a4.429 4.429 0 0 0-1.503 2.789l1.984.253Zm.827-1.53a2.566 2.566 0 0 1 1.678-.619v-2a4.566 4.566 0 0 0-2.986 1.107l1.308 1.513Zm1.678-.619h.412v-2h-.412v2Zm13.504-2.15v6.9h2v-6.9h-2Zm-2.523 4.45H23v-2h-7.046v2Z"/>
</svg>
