<svg xmlns="http://www.w3.org/2000/svg" width="21" height="22" fill="none" viewBox="0 0 21 22">
  <path fill="#fff" d="M6.344 1.98h-.219a.22.22 0 0 0 .219-.22v.22h8.312v-.22c0 .121.099.22.219.22h-.219v1.98h1.969v-2.2c0-.97-.785-1.76-1.75-1.76h-8.75c-.965 0-1.75.79-1.75 1.76v2.2h1.969V1.98Zm13.781 1.98H.875A.877.877 0 0 0 0 4.84v.88c0 .121.098.22.219.22H1.87l.676 14.383A1.756 1.756 0 0 0 4.293 22h12.414c.935 0 1.703-.737 1.747-1.677L19.13 5.94h1.651A.22.22 0 0 0 21 5.72v-.88a.877.877 0 0 0-.875-.88Zm-3.628 16.06H4.504L3.842 5.94h13.316l-.662 14.08Z"/>
</svg>
