<svg xmlns="http://www.w3.org/2000/svg" width="22" height="23" fill="none" viewBox="0 0 22 23">
  <path fill="#fff" d="M21.137 18.77a10.8 10.8 0 0 0-2.358-3.453 10.995 10.995 0 0 0-3.496-2.329c-.012-.006-.024-.009-.035-.014a7.126 7.126 0 0 0 3.007-5.808C18.255 3.207 15.008 0 11 0S3.745 3.207 3.745 7.166c0 2.39 1.185 4.507 3.007 5.81l-.035.015a10.903 10.903 0 0 0-3.496 2.329 10.848 10.848 0 0 0-2.358 3.453A10.628 10.628 0 0 0 0 22.763a.229.229 0 0 0 .143.219c.029.012.06.018.091.018H1.99a.232.232 0 0 0 .234-.225 8.563 8.563 0 0 1 2.57-5.903A8.774 8.774 0 0 1 11 14.332a8.77 8.77 0 0 1 6.208 2.54 8.563 8.563 0 0 1 2.569 5.903.23.23 0 0 0 .234.225h1.755a.238.238 0 0 0 .168-.07.231.231 0 0 0 .066-.167 10.654 10.654 0 0 0-.863-3.993ZM11 12.136a5.03 5.03 0 0 1-3.557-1.457 4.907 4.907 0 0 1-1.475-3.513c0-1.326.524-2.575 1.475-3.514A5.031 5.031 0 0 1 11 2.196c1.343 0 2.607.517 3.557 1.456a4.907 4.907 0 0 1 1.475 3.514 4.907 4.907 0 0 1-1.475 3.513A5.03 5.03 0 0 1 11 12.136Z"/>
</svg>
